<svg id="Layer_1" data-name="Layer 1" xmlns="http://www.w3.org/2000/svg" viewBox="0 0 425.43 333.33"><title>logo (4)</title><path d="M250.22,331.65h0l-5.86-13.38L233.55,294H226c-.7,0-1.33,0-1.9,0a10.68,10.68,0,0,0-4.2.39c-2.3,1-3.68,4.11-8,14-.64,1.45-1.34,3.06-2.12,4.82-1.86,4.34-4,9.2-5.64,12.88h0c-.83,1.86-1.52,3.42-2,4.45-3.34,7.34-6.8,15.6-6.8,16.4,0,.27,3.46.4,7.6.14l7.6-.4,7.33-18.4c4-10,7.6-18.27,8-18.27s3.73,7.73,7.33,17.07,7.2,17.73,7.87,18.53c.8,1.07,4.27,1.73,8.53,1.73,6.4,0,7.2-.26,6.4-2.4C255.69,344.14,253.39,338.89,250.22,331.65Z" transform="translate(-95.29 -13.98)" fill="#fdcc03" fill-rule="evenodd"/><path d="M135.29,308.65c-4.8,8-8.94,14.66-9.34,14.53s-4.53-6.53-9.33-14.53L108,294H95.29v53.33h13.33l.13-13.73c0-10.93.27-13.2,1.6-11.2.68,1,2.46,3.73,4.51,6.91h0c.78,1.22,1.6,2.49,2.42,3.75,7.46,11.6,9.86,11.33,17.86-1.6,6.94-11.6,7.87-10.94,8,5.46l.14,10.4h13.33V294h-12.8Z" transform="translate(-95.29 -13.98)" fill="#fdcc03" fill-rule="evenodd"/><path d="M173.29,101.31l-6.4,6.54c-3.74,3.86-8.67,11.2-11.87,17.73l-5.6,11.2-.93,24.27c-.94,28-2.8,36.53-10.94,52.26-6.66,12.8-21.73,28.8-33.33,35.34-4.13,2.26-7.2,4.8-6.8,5.46,1.2,1.87,17.87,1.34,26.53-.8,11.6-3.06,20.27-8.26,30.14-18s16-20.4,18.4-32c1.2-5.06,1.46-22,1.2-54.66Z" transform="translate(-95.29 -13.98)" fill="#fdcc03" fill-rule="evenodd"/><path d="M284.89,252.78c-3.74-.27-20.8-12.93-28.27-21.07a101.68,101.68,0,0,1-13.2-19.46l-.32-.63h0a115.06,115.06,0,0,1-5.33-11.6c-4.27-11.59-4.41-24.71-5-79.93l0-2.77c0-2.15-.05-4.23-.08-6.26C232,57.92,231.88,47.7,228,39.19a67.65,67.65,0,0,0-3.47-6.35c-.18-.33-.38-.65-.58-1a84.49,84.49,0,0,0-9.06-12.14c-2.94-3.2-5.74-5.73-6.4-5.73-1.74,0-1.47,181.87.26,189.33,5.34,22.94,25.2,43.74,47.74,49.6,9.33,2.4,23.06,2.94,27.46,1.07C285.42,253.31,285.82,252.78,284.89,252.78Z" transform="translate(-95.29 -13.98)" fill="#fdcc03" fill-rule="evenodd"/><path d="M509.55,330.25l4.4-4c3.87-3.34,4.54-4.8,5.07-11.74.53-7.2.13-8.4-3.2-12.4a23.45,23.45,0,0,0-8.13-6.26c-2.8-1.2-9.87-1.87-20.27-1.87h-16l.27,26.27.26,26.4h14.67l.67-12.27.66-12.27,8.54,12.54,8.53,12.4,7.73.13c4.4,0,7.87-.27,7.87-.67s-2.53-4.13-5.47-8.4Zm-7.2-12c-1.46,1.73-4,2.4-8.66,2.4h-6.4V305.18l5.06.27c7.74.26,8,.4,10.14,2.66C505.29,310.78,505.15,315.18,502.35,318.25Z" transform="translate(-95.29 -13.98)" fill="#fdcc03" fill-rule="evenodd"/><path d="M431.69,254.11c29.86-.26,35.6-.66,42.8-2.8,21.2-6.66,38.53-24.66,44.13-46,9.07-34.93-12.13-70.8-47.47-80.8-3.86-1.06-17.06-1.6-38.53-1.73L400,122.65v73.78h0v34.42a30.62,30.62,0,0,1-5.7-2.07c-11.07-5.07-17.07-13.2-22.93-31.47-2.4-7.6-3.2-13.86-4-34-.8-22.26-1.2-25.46-4.27-32.93a75.69,75.69,0,0,0-14.93-22.8c-2.14-2.27-4.54-4.27-5.2-4.27s-.94,20.94-.67,48.27c.67,51.33.93,54.4,7.87,68,6.66,13.07,23.6,27.2,38.53,32C396.62,254.11,400,254.25,431.69,254.11Zm-7.07-54.66v-52.4l20.4.53c15.2.53,21.6,1.33,25.6,3.07a41.33,41.33,0,0,1,20.53,19.6c3.6,6.93,4.14,9.6,4.14,18.4s-.54,11.46-4,18.26c-6.27,12.4-17.6,20.14-34.14,23.34-5.33.93-18.93,1.73-32.53,1.73Z" transform="translate(-95.29 -13.98)" fill="#fdcc03" fill-rule="evenodd"/><path d="M329.42,318.51a39.32,39.32,0,0,0-10-3.86c-10.93-1.87-14.53-4.94-10.13-8.67,2-1.6,12.66-1.33,18.8.67,2.4.8,3.2,0,4.93-4.27,2-5.07,2-5.07-1.47-6.93-2-1.07-8.13-2.14-13.6-2.4-16.4-.8-25.33,5.33-25.33,17.33,0,8.53,4.93,12.13,23.73,16.93,4.14,1.07,5.6,2.14,5.6,4,0,1.34-.66,2.94-1.46,3.34-2.54,1.6-14.14.8-19.2-1.34a28.67,28.67,0,0,0-5.34-1.73,51.5,51.5,0,0,0-2.53,5.47l-2,5.06,4.93,2.14c6.27,2.8,22.67,3.86,28.67,1.86C338.62,341.58,341.29,325.05,329.42,318.51Z" transform="translate(-95.29 -13.98)" fill="#fdcc03" fill-rule="evenodd"/><path d="M421,318l-10.4-23.87L403,294c-4.13,0-7.87.4-8.13.93-1.74,2.8-22.26,50-22.27,51.07,0,.8,3.2,1.33,7.2,1.33H387L394.75,328c4.27-10.67,7.87-19.2,8-18.93s3.47,8,7.2,17.6,7.47,18,8.14,18.8,4.26,1.6,8,1.46c6,0,6.66-.26,6.13-2.53C431.82,342.91,426.75,331,421,318Z" transform="translate(-95.29 -13.98)" fill="#fdcc03" fill-rule="evenodd"/><path d="M348.75,252c-5.86-1.87-24.13-16.93-30.26-25.07-7.34-9.73-14.27-23.73-17.2-34.93-1.2-4.8-2.54-17.74-3.07-32.27l-1.07-24.13-4.93-10a89.09,89.09,0,0,0-11.07-16.8c-3.33-3.73-6.66-6.8-7.33-6.8-1.6,0-1.47,86.53.13,97.33,4.94,31.2,34.14,56,66,56C348.89,255.31,353.55,253.58,348.75,252Z" transform="translate(-95.29 -13.98)" fill="#fdcc03" fill-rule="evenodd"/></svg>